<?xml version="1.0" encoding="UTF-8"?>
<!DOCTYPE svg PUBLIC "-//W3C//DTD SVG 1.1//EN" "http://www.w3.org/Graphics/SVG/1.1/DTD/svg11.dtd">
<!-- Creator: CorelDRAW X7 -->
<svg xmlns="http://www.w3.org/2000/svg" xml:space="preserve" width="210mm" height="297mm" version="1.1" style="shape-rendering:geometricPrecision; text-rendering:geometricPrecision; image-rendering:optimizeQuality; fill-rule:evenodd; clip-rule:evenodd"
viewBox="0 0 21000 29700"
 xmlns:xlink="http://www.w3.org/1999/xlink">
 <defs>
  <style type="text/css">
   <![CDATA[
    .fil0 {fill:black}
    .fil1 {fill:white}
   ]]>
  </style>
 </defs>
 <g id="Layer_x0020_1">
  <metadata id="CorelCorpID_0Corel-Layer"/>
  <g id="_239958112">
   <path class="fil0" d="M6812 13987c-5,-117 -631,-1918 -723,-2187 -125,-362 -247,-730 -368,-1087 -61,-179 -124,-364 -186,-549 -52,-154 -148,-394 -177,-547l2916 4 1888 5536 2048 -5523 92 -18c21,-1 60,0 82,0 924,8 1857,-11 2780,4l-1499 4479 793 252 815 -2189c105,13 1565,561 1757,644l-2228 6007c-99,-14 -1677,-598 -1752,-649l750 -2049c-200,-53 -556,-214 -739,-231 -66,108 -156,436 -200,566 -133,395 -1254,3764 -1316,3883l-2575 -2 -1541 -4568 -789 307 726 2155 -1775 592c-97,-286 -2040,-5934 -2042,-6067l1763 -594 728 2139 772 -308zm-6801 14032l20978 0 0 -26222 -20978 0 0 26222z"/>
   <path class="fil1" d="M6812 13987l-772 308 -728 -2139 -1763 594c2,133 1945,5781 2042,6067l1775 -592 -726 -2155 789 -307 1541 4568 2575 2c62,-119 1183,-3488 1316,-3883 44,-130 134,-458 200,-566 183,17 539,178 739,231l-750 2049c75,51 1653,635 1752,649l2228 -6007c-192,-83 -1652,-631 -1757,-644l-815 2189 -793 -252 1499 -4479c-923,-15 -1856,4 -2780,-4 -22,0 -61,-1 -82,0l-92 18 -2048 5523 -1888 -5536 -2916 -4c29,153 125,393 177,547 62,185 125,370 186,549 121,357 243,725 368,1087 92,269 718,2070 723,2187z"/>
  </g>
 </g>
</svg>
